<?xml version="1.0" encoding="utf-8"?>
<!-- Generator: Adobe Illustrator 22.0.1, SVG Export Plug-In . SVG Version: 6.00 Build 0)  -->
<svg version="1.1" id="Lager_1" xmlns="http://www.w3.org/2000/svg" xmlns:xlink="http://www.w3.org/1999/xlink" x="0px" y="0px"
	 viewBox="0 0 86.3 86.3" style="enable-background:new 0 0 86.3 86.3;" xml:space="preserve">
<style type="text/css">
	.st0{fill:#1D1D1B;}
</style>
<g>
	<path class="st0" d="M69,42.6L43.8,20.2c-0.4-0.3-1-0.3-1.4,0L17.2,42.6c-0.2,0.2-0.3,0.5-0.3,0.8v22.2c0,0.6,0.5,1,1,1h50.5
		c0.6,0,1-0.5,1-1V43.4C69.4,43.1,69.3,42.8,69,42.6z M67.3,64.6H55v-7.4c0-0.6-0.5-1-1-1c-0.6,0-1,0.5-1,1v7.4h-5.2v-7.4
		c0-0.6-0.5-1-1-1s-1,0.5-1,1v7.4h-5.2V53.1c0-0.6-0.5-1-1-1c-0.6,0-1,0.5-1,1v11.5h-5.2v-7.4c0-0.6-0.5-1-1-1c-0.6,0-1,0.5-1,1v7.4
		H26v-7.4c0-0.6-0.5-1-1-1c-0.6,0-1,0.5-1,1v7.4h-5V43.9l24.2-21.5l24.2,21.5V64.6z"/>
	<path class="st0" d="M61.2,59.4c2,0,3.7-1.6,3.7-3.7S63.2,52,61.2,52s-3.7,1.6-3.7,3.7S59.1,59.4,61.2,59.4z M61.2,54
		c1,0,1.7,0.8,1.7,1.7c0,1-0.8,1.7-1.7,1.7c-1,0-1.7-0.8-1.7-1.7C59.4,54.7,60.2,54,61.2,54z"/>
</g>
</svg>
