<?xml version="1.0" encoding="utf-8"?>
<!-- Generator: Adobe Illustrator 22.0.1, SVG Export Plug-In . SVG Version: 6.00 Build 0)  -->
<svg version="1.1" id="Lager_1" xmlns="http://www.w3.org/2000/svg" xmlns:xlink="http://www.w3.org/1999/xlink" x="0px" y="0px"
	 viewBox="0 0 165.5 86.3" style="enable-background:new 0 0 165.5 86.3;" xml:space="preserve">
<style type="text/css">
	.st0{fill:#1D1D1B;}
	.st1{fill:none;}
</style>
<g>
	<path class="st0" d="M324.9,553.2l-11.8-11.8c-1.4-1.4-3.9-1.4-5.4,0l-37.5,37.5c-1.5,1.5-1.5,3.9,0,5.4l11.8,11.8
		c0.7,0.7,1.7,1.1,2.7,1.1s2-0.4,2.7-1.1l37.5-37.5C326.4,557.1,326.4,554.7,324.9,553.2z M283.5,594.7l-11.8-11.8
		c-0.4-0.4-0.6-0.8-0.6-1.3s0.2-1,0.6-1.3l37.5-37.5c0.7-0.7,2-0.7,2.7,0l11.8,11.8c0.4,0.4,0.6,0.8,0.6,1.3s-0.2,1-0.6,1.3l0,0
		l-2.5-2.5c-0.4-0.4-1-0.4-1.3,0s-0.4,1,0,1.3l2.5,2.5l-2.1,2.1l-5.2-5.2c-0.4-0.4-1-0.4-1.3,0s-0.4,1,0,1.3l5.2,5.2l-1.9,1.9
		l-2.5-2.5c-0.4-0.4-1-0.4-1.3,0s-0.4,1,0,1.3l2.5,2.5l-1.9,1.9l-2.5-2.5c-0.4-0.4-1-0.4-1.3,0s-0.4,1,0,1.3l2.5,2.5l-2.1,2.1
		l-5.2-5.2c-0.4-0.4-1-0.4-1.3,0s-0.4,1,0,1.3l5.2,5.2l-1.9,1.9l-2.5-2.5c-0.4-0.4-1-0.4-1.3,0c-0.4,0.4-0.4,1,0,1.3l2.5,2.5
		l-1.9,1.9l-2.5-2.5c-0.4-0.4-1-0.4-1.3,0s-0.4,1,0,1.3l2.5,2.5l-2.1,2.1l-5.2-5.2c-0.4-0.4-1-0.4-1.3,0s-0.4,1,0,1.3l5.2,5.2
		l-1.8,1.8l-2.5-2.5c-0.4-0.4-1-0.4-1.3,0s-0.4,1,0,1.3l2.5,2.5l-1.8,1.8l-2.5-2.5c-0.4-0.4-1-0.4-1.3,0s-0.4,1,0,1.3l2.5,2.5
		l-2.1,2.1l-5.2-5.2c-0.4-0.4-1-0.4-1.3,0s-0.4,1,0,1.3l5.2,5.2l-2.1,2.1l-2.5-2.5c-0.4-0.4-1-0.4-1.3,0s-0.4,1,0,1.3l2.5,2.5l0,0
		C285.4,595.4,284.2,595.4,283.5,594.7z"/>
	<path class="st0" d="M310.2,551.6c0.8,0,1.6-0.3,2.2-0.9h0c1.2-1.2,1.2-3.3,0-4.5c-1.2-1.2-3.3-1.2-4.5,0c-0.6,0.6-0.9,1.4-0.9,2.2
		s0.3,1.6,0.9,2.2C308.6,551.2,309.4,551.6,310.2,551.6z M309.3,547.5c0.2-0.2,0.6-0.4,0.9-0.4c0.3,0,0.7,0.1,0.9,0.4
		c0.5,0.5,0.5,1.3,0,1.8c-0.5,0.5-1.3,0.5-1.8,0c-0.2-0.2-0.4-0.6-0.4-0.9S309.1,547.7,309.3,547.5z"/>
</g>
<path class="st1" d="M143.6,42.1c3.4,0,6.1-2.7,6.1-6.1c0-3.4-2.7-6.1-6.1-6.1c-3.4,0-6.1,2.7-6.1,6.1
	C137.5,39.4,140.2,42.1,143.6,42.1z"/>
<g>
	<path d="M41.7,37.9c-2,0-3.6,1.6-3.6,3.6v25.9h7.3V41.5C45.4,39.5,43.7,37.9,41.7,37.9z"/>
	<path d="M92.8,37.9c-2,0-3.6,1.6-3.6,3.6v25.9h7.3V41.5C96.5,39.5,94.8,37.9,92.8,37.9z"/>
	<path d="M67.3,23.3c-2,0-3.6,1.6-3.6,3.6v40.5h7.3V26.9C70.9,24.9,69.3,23.3,67.3,23.3z"/>
	<path d="M16.2,37.9c-2,0-3.7,1.6-3.7,3.6v25.9h7.3V41.5C19.8,39.5,18.2,37.9,16.2,37.9z"/>
	<path d="M118.4,37.9c-2,0-3.6,1.6-3.6,3.6v25.9h7.3V41.5C122,39.5,120.4,37.9,118.4,37.9z"/>
	<path d="M143.6,48.9c7.1,0,12.9-5.8,12.9-12.9c0-7.1-5.8-12.9-12.9-12.9c-7.1,0-12.9,5.8-12.9,12.9
		C130.7,43.1,136.5,48.9,143.6,48.9z M143.6,29.9c3.4,0,6.1,2.7,6.1,6.1c0,3.4-2.7,6.1-6.1,6.1c-3.4,0-6.1-2.7-6.1-6.1
		C137.5,32.6,140.2,29.9,143.6,29.9z"/>
</g>
</svg>
