<?xml version="1.0" encoding="utf-8"?>
<!-- Generator: Adobe Illustrator 22.0.1, SVG Export Plug-In . SVG Version: 6.00 Build 0)  -->
<svg version="1.1" id="Lager_1" xmlns="http://www.w3.org/2000/svg" xmlns:xlink="http://www.w3.org/1999/xlink" x="0px" y="0px"
	 viewBox="0 0 165.5 86.3" style="enable-background:new 0 0 165.5 86.3;" xml:space="preserve">
<style type="text/css">
	.st0{fill:#1D1D1B;}
</style>
<g>
	<path class="st0" d="M324.9,553.2l-11.8-11.8c-1.4-1.4-3.9-1.4-5.4,0l-37.5,37.5c-1.5,1.5-1.5,3.9,0,5.4l11.8,11.8
		c0.7,0.7,1.7,1.1,2.7,1.1s2-0.4,2.7-1.1l37.5-37.5C326.4,557.1,326.4,554.7,324.9,553.2z M283.5,594.7l-11.8-11.8
		c-0.4-0.4-0.6-0.8-0.6-1.3s0.2-1,0.6-1.3l37.5-37.5c0.7-0.7,2-0.7,2.7,0l11.8,11.8c0.4,0.4,0.6,0.8,0.6,1.3s-0.2,1-0.6,1.3l0,0
		l-2.5-2.5c-0.4-0.4-1-0.4-1.3,0s-0.4,1,0,1.3l2.5,2.5l-2.1,2.1l-5.2-5.2c-0.4-0.4-1-0.4-1.3,0s-0.4,1,0,1.3l5.2,5.2l-1.9,1.9
		l-2.5-2.5c-0.4-0.4-1-0.4-1.3,0s-0.4,1,0,1.3l2.5,2.5l-1.9,1.9l-2.5-2.5c-0.4-0.4-1-0.4-1.3,0s-0.4,1,0,1.3l2.5,2.5l-2.1,2.1
		l-5.2-5.2c-0.4-0.4-1-0.4-1.3,0s-0.4,1,0,1.3l5.2,5.2l-1.9,1.9l-2.5-2.5c-0.4-0.4-1-0.4-1.3,0c-0.4,0.4-0.4,1,0,1.3l2.5,2.5
		l-1.9,1.9l-2.5-2.5c-0.4-0.4-1-0.4-1.3,0s-0.4,1,0,1.3l2.5,2.5l-2.1,2.1l-5.2-5.2c-0.4-0.4-1-0.4-1.3,0s-0.4,1,0,1.3l5.2,5.2
		l-1.8,1.8l-2.5-2.5c-0.4-0.4-1-0.4-1.3,0s-0.4,1,0,1.3l2.5,2.5l-1.8,1.8l-2.5-2.5c-0.4-0.4-1-0.4-1.3,0s-0.4,1,0,1.3l2.5,2.5
		l-2.1,2.1l-5.2-5.2c-0.4-0.4-1-0.4-1.3,0s-0.4,1,0,1.3l5.2,5.2l-2.1,2.1l-2.5-2.5c-0.4-0.4-1-0.4-1.3,0s-0.4,1,0,1.3l2.5,2.5l0,0
		C285.4,595.4,284.2,595.4,283.5,594.7z"/>
	<path class="st0" d="M310.2,551.6c0.8,0,1.6-0.3,2.2-0.9h0c1.2-1.2,1.2-3.3,0-4.5c-1.2-1.2-3.3-1.2-4.5,0c-0.6,0.6-0.9,1.4-0.9,2.2
		s0.3,1.6,0.9,2.2C308.6,551.2,309.4,551.6,310.2,551.6z M309.3,547.5c0.2-0.2,0.6-0.4,0.9-0.4c0.3,0,0.7,0.1,0.9,0.4
		c0.5,0.5,0.5,1.3,0,1.8c-0.5,0.5-1.3,0.5-1.8,0c-0.2-0.2-0.4-0.6-0.4-0.9S309.1,547.7,309.3,547.5z"/>
</g>
<g>
	<g>
		<path d="M108.5,30L83.9,8.2c-0.4-0.3-1-0.3-1.3,0L58,30c-0.2,0.2-0.3,0.5-0.3,0.8v21.7c0,0.6,0.5,1,1,1h49.1c0.6,0,1-0.5,1-1V30.7
			C108.8,30.5,108.7,30.2,108.5,30z M106.8,51.4h-12v-7.2c0-0.6-0.5-1-1-1c-0.6,0-1,0.5-1,1v7.2h-5v-7.2c0-0.6-0.5-1-1-1
			c-0.6,0-1,0.5-1,1v7.2h-5V40.2c0-0.6-0.5-1-1-1s-1,0.5-1,1v11.2h-5v-7.2c0-0.6-0.5-1-1-1s-1,0.5-1,1v7.2h-5v-7.2c0-0.6-0.5-1-1-1
			s-1,0.5-1,1v7.2h-4.9V31.2l23.6-20.9l23.6,20.9V51.4z"/>
		<path d="M100.8,46.3c2,0,3.6-1.6,3.6-3.6c0-2-1.6-3.6-3.6-3.6c-2,0-3.6,1.6-3.6,3.6C97.3,44.7,98.9,46.3,100.8,46.3z M100.8,41
			c0.9,0,1.7,0.8,1.7,1.7c0,0.9-0.8,1.7-1.7,1.7c-0.9,0-1.7-0.8-1.7-1.7C99.1,41.8,99.9,41,100.8,41z"/>
	</g>
	<g>
		<g>
			<path d="M16.1,66.9c0.6,0,1.1,0.1,1.7,0.2c0.5,0.2,1,0.4,1.4,0.7c0.4,0.3,0.7,0.7,0.9,1.2c0.2,0.5,0.4,1.1,0.4,1.7
				c0,0.7-0.1,1.2-0.4,1.7c-0.2,0.5-0.6,0.9-0.9,1.2c-0.4,0.3-0.9,0.6-1.4,0.7c-0.5,0.2-1.1,0.2-1.7,0.2h-3.3V79
				c0,0.1,0,0.2-0.1,0.3c-0.1,0.1-0.2,0.1-0.3,0.1h-0.7c-0.1,0-0.2,0-0.3-0.1c-0.1-0.1-0.1-0.2-0.1-0.3V67.4c0-0.1,0-0.2,0.1-0.3
				c0.1-0.1,0.2-0.1,0.3-0.1H16.1z M12.8,73h3.2c0.9,0,1.5-0.2,2-0.6c0.5-0.4,0.7-0.9,0.7-1.7c0-0.8-0.2-1.3-0.7-1.7
				c-0.5-0.3-1.1-0.5-2-0.5h-3.2V73z"/>
		</g>
		<g>
			<path d="M28.4,66.9c0.6,0,1.1,0.1,1.7,0.2c0.5,0.1,1,0.4,1.4,0.7c0.4,0.3,0.7,0.7,0.9,1.2c0.2,0.5,0.4,1,0.4,1.7
				c0,1-0.2,1.8-0.7,2.3c-0.5,0.6-1.1,1-1.9,1.2l2.7,4.8c0,0.1,0.1,0.1,0.1,0.2c0,0.1,0,0.2-0.1,0.3c-0.1,0.1-0.2,0.1-0.3,0.1h-0.8
				c-0.2,0-0.4-0.1-0.5-0.2c-0.1-0.1-0.2-0.2-0.2-0.3l-2.6-4.6h-3.1V79c0,0.1,0,0.2-0.1,0.3c-0.1,0.1-0.2,0.1-0.3,0.1h-0.7
				c-0.1,0-0.2,0-0.3-0.1c-0.1-0.1-0.1-0.2-0.1-0.3V67.4c0-0.1,0-0.2,0.1-0.3c0.1-0.1,0.2-0.1,0.3-0.1H28.4z M25.3,72.8h3.1
				c0.9,0,1.5-0.2,2-0.5c0.5-0.3,0.7-0.9,0.7-1.7c0-0.8-0.2-1.3-0.7-1.6c-0.5-0.3-1.1-0.5-2-0.5h-3.1V72.8z"/>
		</g>
		<g>
			<path d="M35.8,71.6c0-0.7,0.1-1.3,0.4-1.9c0.2-0.6,0.5-1.1,1-1.6c0.4-0.4,0.9-0.8,1.6-1c0.6-0.3,1.3-0.4,2.1-0.4
				c0.8,0,1.5,0.1,2.1,0.4c0.6,0.3,1.1,0.6,1.6,1c0.4,0.4,0.7,1,1,1.6s0.3,1.2,0.4,1.9c0,1.1,0,2.1,0,3.2c0,0.7-0.1,1.3-0.4,1.9
				c-0.2,0.6-0.5,1.1-1,1.6c-0.4,0.4-0.9,0.8-1.5,1c-0.6,0.3-1.3,0.4-2.1,0.4c-0.8,0-1.5-0.1-2.1-0.4c-0.6-0.3-1.1-0.6-1.5-1
				c-0.4-0.4-0.7-1-1-1.6c-0.2-0.6-0.3-1.2-0.4-1.9C35.7,73.7,35.7,72.7,35.8,71.6z M44,71.7c0-0.6-0.1-1.1-0.3-1.5
				c-0.2-0.4-0.4-0.8-0.7-1c-0.3-0.3-0.6-0.5-1-0.6c-0.4-0.1-0.8-0.2-1.3-0.2c-0.5,0-0.9,0.1-1.3,0.2c-0.4,0.1-0.7,0.3-1,0.6
				c-0.3,0.3-0.5,0.6-0.7,1c-0.2,0.4-0.3,0.9-0.3,1.5c0,0.5,0,1,0,1.5c0,0.5,0,1,0,1.5c0,0.6,0.1,1.1,0.3,1.5c0.2,0.4,0.4,0.8,0.7,1
				c0.3,0.3,0.6,0.5,1,0.6c0.4,0.1,0.8,0.2,1.3,0.2c0.5,0,0.9-0.1,1.3-0.2c0.4-0.1,0.7-0.3,1-0.6c0.3-0.3,0.5-0.6,0.7-1
				c0.2-0.4,0.3-0.9,0.3-1.5c0-0.5,0-1,0-1.5C44.1,72.7,44.1,72.2,44,71.7z"/>
		</g>
		<g>
			<path d="M57.7,75.1c0,0.7-0.1,1.3-0.3,1.9c-0.2,0.6-0.5,1-0.9,1.5c-0.4,0.4-0.9,0.7-1.5,0.9c-0.6,0.2-1.2,0.3-2,0.3
				c-0.7,0-1.4-0.1-2-0.3c-0.6-0.2-1.1-0.5-1.5-0.9c-0.4-0.4-0.7-0.8-0.9-1.2c-0.2-0.5-0.3-1-0.3-1.5c0-0.1,0-0.2,0.1-0.3
				c0.1-0.1,0.2-0.1,0.3-0.1h0.9c0.2,0,0.3,0.1,0.4,0.4c0.1,0.3,0.2,0.6,0.3,0.9c0.1,0.3,0.3,0.5,0.6,0.7c0.2,0.2,0.5,0.4,0.9,0.5
				c0.3,0.1,0.8,0.2,1.2,0.2c1.1,0,1.8-0.3,2.3-0.8c0.4-0.6,0.7-1.3,0.7-2.4v-6.4h-6.2c-0.1,0-0.2,0-0.3-0.1
				c-0.1-0.1-0.1-0.2-0.1-0.3v-0.7c0-0.1,0-0.2,0.1-0.3c0.1-0.1,0.2-0.1,0.3-0.1h7.5c0.1,0,0.2,0,0.3,0.1c0.1,0.1,0.1,0.2,0.1,0.3
				V75.1z"/>
		</g>
		<g>
			<path d="M69.4,77.9c0.1,0,0.2,0,0.3,0.1c0.1,0.1,0.1,0.2,0.1,0.3V79c0,0.1,0,0.2-0.1,0.3c-0.1,0.1-0.2,0.1-0.3,0.1h-7.3
				c-0.1,0-0.2,0-0.3-0.1c-0.1-0.1-0.1-0.2-0.1-0.3V67.4c0-0.1,0-0.2,0.1-0.3c0.1-0.1,0.2-0.1,0.3-0.1h7.2c0.1,0,0.2,0,0.3,0.1
				c0.1,0.1,0.1,0.2,0.1,0.3V68c0,0.1,0,0.2-0.1,0.3c-0.1,0.1-0.2,0.1-0.3,0.1h-5.9v3.8h5.5c0.1,0,0.2,0,0.3,0.1
				c0.1,0.1,0.1,0.2,0.1,0.3v0.7c0,0.1,0,0.2-0.1,0.3c-0.1,0.1-0.2,0.1-0.3,0.1h-5.5v4H69.4z"/>
		</g>
		<g>
			<path d="M75.8,72.9l6.2,5.9c0.1,0.1,0.1,0.1,0.1,0.2c0,0.1,0,0.1,0,0.1c0,0.1,0,0.2-0.1,0.3c-0.1,0.1-0.2,0.1-0.3,0.1h-1.1
				c-0.2,0-0.3,0-0.4-0.1c-0.1-0.1-0.2-0.1-0.2-0.2l-5.1-4.9V79c0,0.1,0,0.2-0.1,0.3c-0.1,0.1-0.2,0.1-0.3,0.1h-0.7
				c-0.1,0-0.2,0-0.3-0.1c-0.1-0.1-0.1-0.2-0.1-0.3V67.4c0-0.1,0-0.2,0.1-0.3c0.1-0.1,0.2-0.1,0.3-0.1h0.7c0.1,0,0.2,0,0.3,0.1
				c0.1,0.1,0.1,0.2,0.1,0.3v4.2l4.8-4.4c0,0,0.1-0.1,0.2-0.2c0.1-0.1,0.2-0.1,0.4-0.1h1c0.1,0,0.2,0,0.3,0.1
				c0.1,0.1,0.1,0.2,0.1,0.3c0,0,0,0.1,0,0.1s-0.1,0.1-0.1,0.2L75.8,72.9z"/>
		</g>
		<g>
			<path d="M92.7,66.9c0.1,0,0.2,0,0.3,0.1c0.1,0.1,0.1,0.2,0.1,0.3V68c0,0.1,0,0.2-0.1,0.3c-0.1,0.1-0.2,0.1-0.3,0.1h-3.4V79
				c0,0.1,0,0.2-0.1,0.3c-0.1,0.1-0.2,0.1-0.3,0.1h-0.7c-0.1,0-0.2,0-0.3-0.1c-0.1-0.1-0.1-0.2-0.1-0.3V68.5h-3.4
				c-0.1,0-0.2,0-0.3-0.1c-0.1-0.1-0.1-0.2-0.1-0.3v-0.7c0-0.1,0-0.2,0.1-0.3c0.1-0.1,0.2-0.1,0.3-0.1H92.7z"/>
		</g>
		<g>
			<path d="M105.4,66.9c0.1,0,0.2,0,0.3,0.1c0.1,0.1,0.1,0.2,0.1,0.3V79c0,0.1,0,0.2-0.1,0.3c-0.1,0.1-0.2,0.1-0.3,0.1h-0.7
				c-0.1,0-0.2,0-0.3-0.1c-0.1-0.1-0.1-0.2-0.1-0.3v-5.1h-6.4V79c0,0.1,0,0.2-0.1,0.3c-0.1,0.1-0.2,0.1-0.3,0.1h-0.7
				c-0.1,0-0.2,0-0.3-0.1c-0.1-0.1-0.1-0.2-0.1-0.4V67.4c0-0.1,0-0.2,0.1-0.3c0.1-0.1,0.2-0.1,0.3-0.1h0.7c0.1,0,0.2,0,0.3,0.1
				c0.1,0.1,0.1,0.2,0.1,0.3v5h6.4v-5c0-0.1,0-0.2,0.1-0.3c0.1-0.1,0.2-0.1,0.3-0.1H105.4z"/>
		</g>
		<g>
			<path d="M119,66.9c0.1,0,0.2,0,0.3,0.1c0.1,0.1,0.1,0.2,0.1,0.3v7.2c0,0.7-0.1,1.4-0.3,2.1c-0.2,0.6-0.5,1.2-0.9,1.6
				c-0.4,0.5-0.9,0.8-1.5,1.1c-0.6,0.3-1.3,0.4-2.2,0.4c-0.9,0-1.6-0.1-2.2-0.4c-0.6-0.3-1.1-0.6-1.5-1.1c-0.4-0.5-0.7-1-0.9-1.6
				c-0.2-0.6-0.3-1.3-0.3-2.1v-7.2c0-0.1,0-0.2,0.1-0.3c0.1-0.1,0.2-0.1,0.3-0.1h0.7c0.1,0,0.2,0,0.3,0.1c0.1,0.1,0.1,0.2,0.1,0.3
				v7.3c0,1.2,0.3,2.1,0.8,2.6c0.6,0.6,1.3,0.9,2.3,0.9s1.8-0.3,2.3-0.9c0.6-0.6,0.8-1.4,0.8-2.6v-7.3c0-0.1,0-0.2,0.1-0.3
				c0.1-0.1,0.2-0.1,0.3-0.1H119z"/>
		</g>
		<g>
			<path d="M127.3,66.7c0.7,0,1.4,0.1,1.9,0.3c0.6,0.2,1,0.5,1.4,0.8c0.4,0.3,0.7,0.7,0.9,1.1c0.2,0.4,0.3,0.7,0.3,1
				c0,0.1,0,0.2-0.1,0.3c-0.1,0.1-0.2,0.1-0.3,0.1h-0.7c-0.1,0-0.2,0-0.3-0.1c-0.1,0-0.2-0.2-0.2-0.3c-0.1-0.1-0.2-0.3-0.3-0.5
				c-0.1-0.2-0.3-0.4-0.6-0.5c-0.2-0.2-0.5-0.3-0.9-0.5c-0.3-0.1-0.7-0.2-1.2-0.2c-0.3,0-0.7,0-1,0.1c-0.3,0.1-0.6,0.2-0.8,0.4
				c-0.2,0.2-0.4,0.4-0.6,0.6c-0.1,0.2-0.2,0.5-0.2,0.8c0,0.3,0.1,0.6,0.2,0.8c0.1,0.2,0.4,0.4,0.7,0.6c0.3,0.2,0.7,0.3,1.2,0.5
				c0.5,0.1,1,0.3,1.7,0.5c0.7,0.2,1.3,0.4,1.7,0.6c0.5,0.2,0.9,0.5,1.2,0.7s0.5,0.6,0.7,0.9c0.1,0.4,0.2,0.8,0.2,1.2
				c0,0.5-0.1,1-0.4,1.5c-0.2,0.5-0.6,0.8-1,1.2c-0.4,0.3-0.9,0.6-1.5,0.8c-0.6,0.2-1.3,0.3-2,0.3c-0.7,0-1.3-0.1-1.9-0.3
				c-0.6-0.2-1.1-0.5-1.5-0.8c-0.4-0.3-0.8-0.7-1-1.1c-0.2-0.4-0.4-0.8-0.4-1.2c0-0.1,0-0.2,0.1-0.3c0.1-0.1,0.2-0.1,0.3-0.1h0.7
				c0.1,0,0.2,0,0.3,0.1c0.1,0,0.2,0.2,0.2,0.3c0.1,0.2,0.2,0.4,0.3,0.6c0.2,0.2,0.4,0.4,0.6,0.6c0.3,0.2,0.6,0.3,0.9,0.4
				c0.4,0.1,0.8,0.2,1.3,0.2c0.4,0,0.8,0,1.2-0.1c0.4-0.1,0.7-0.2,1-0.4c0.3-0.2,0.5-0.4,0.7-0.7c0.2-0.3,0.3-0.5,0.3-0.8
				c0-0.3-0.1-0.6-0.3-0.8c-0.2-0.2-0.5-0.4-0.8-0.6c-0.4-0.2-0.8-0.3-1.3-0.5c-0.5-0.2-1.1-0.3-1.8-0.5c-0.6-0.2-1.1-0.3-1.5-0.6
				c-0.4-0.2-0.8-0.5-1-0.8c-0.3-0.3-0.5-0.6-0.6-1c-0.1-0.3-0.2-0.7-0.2-1.1c0-0.4,0.1-0.9,0.3-1.3c0.2-0.4,0.4-0.8,0.8-1.1
				c0.4-0.3,0.8-0.6,1.3-0.8C126,66.8,126.6,66.7,127.3,66.7z"/>
		</g>
		<g>
			<path d="M143.3,77.9c0.1,0,0.2,0,0.3,0.1c0.1,0.1,0.1,0.2,0.1,0.3V79c0,0.1,0,0.2-0.1,0.3c-0.1,0.1-0.2,0.1-0.3,0.1H136
				c-0.1,0-0.2,0-0.3-0.1c-0.1-0.1-0.1-0.2-0.1-0.3V67.4c0-0.1,0-0.2,0.1-0.3c0.1-0.1,0.2-0.1,0.3-0.1h7.2c0.1,0,0.2,0,0.3,0.1
				c0.1,0.1,0.1,0.2,0.1,0.3V68c0,0.1,0,0.2-0.1,0.3c-0.1,0.1-0.2,0.1-0.3,0.1h-5.9v3.8h5.5c0.1,0,0.2,0,0.3,0.1
				c0.1,0.1,0.1,0.2,0.1,0.3v0.7c0,0.1,0,0.2-0.1,0.3c-0.1,0.1-0.2,0.1-0.3,0.1h-5.5v4H143.3z"/>
		</g>
		<g>
			<path d="M154.9,66.9c0.1,0,0.2,0,0.3,0.1c0.1,0.1,0.1,0.2,0.1,0.3V68c0,0.1,0,0.2-0.1,0.3c-0.1,0.1-0.2,0.1-0.3,0.1h-3.4V79
				c0,0.1,0,0.2-0.1,0.3c-0.1,0.1-0.2,0.1-0.3,0.1h-0.7c-0.1,0-0.2,0-0.3-0.1c-0.1-0.1-0.1-0.2-0.1-0.3V68.5h-3.4
				c-0.1,0-0.2,0-0.3-0.1c-0.1-0.1-0.1-0.2-0.1-0.3v-0.7c0-0.1,0-0.2,0.1-0.3c0.1-0.1,0.2-0.1,0.3-0.1H154.9z"/>
		</g>
	</g>
</g>
</svg>
